<svg width="412" height="493" viewBox="0 0 412 493" fill="none" xmlns="http://www.w3.org/2000/svg">
<mask id="mask0_1_2251" style="mask-type:luminance" maskUnits="userSpaceOnUse" x="-33" y="0" width="479" height="478">
<path d="M-32.04 0H445.04V477.08H-32.04V0Z" fill="white"/>
</mask>
<g mask="url(#mask0_1_2251)">
<path d="M-32.04 0H445.04V477.08H-32.04V0Z" fill="white"/>
<path d="M-32.04 0H445.04V477.08H-32.04V0Z" fill="white"/>
</g>
<mask id="mask1_1_2251" style="mask-type:luminance" maskUnits="userSpaceOnUse" x="255" y="377" width="67" height="64">
<path d="M255.8 377.967H321.533V440.811H255.8V377.967Z" fill="white"/>
</mask>
<g mask="url(#mask1_1_2251)">
<path d="M312.611 406.083L284.623 434.392L258.753 398.894C259.395 399.022 259.973 399.086 260.679 399.086C269.666 399.536 277.305 392.474 277.69 383.359C277.754 382.204 277.69 381.048 277.497 379.893L312.611 406.083Z" fill="#16C79A"/>
</g>
<path d="M248.867 371.997C252.013 368.21 256.827 365.834 262.155 366.091C269.987 366.476 276.278 372.382 277.497 379.893C277.69 381.048 277.754 382.204 277.69 383.359C277.305 392.474 269.666 399.536 260.679 399.086C259.973 399.086 259.395 399.022 258.753 398.894C250.665 397.61 244.695 390.292 245.08 381.818C245.272 378.095 246.685 374.693 248.867 371.997Z" fill="#16B285"/>
<path d="M156.943 75.6833C160.217 85.3122 156.494 96.2892 147.507 101.681C138.584 106.945 127.415 105.084 120.674 97.7014C120.225 97.1237 119.776 96.5459 119.262 95.9682C118.813 95.3263 118.363 94.6202 117.914 93.914C111.88 83.5148 115.282 70.1627 125.553 64.0002C135.824 57.9019 149.047 61.3683 155.146 71.7676C155.595 72.6021 156.044 73.4366 156.365 74.2711C156.558 74.7846 156.751 75.234 156.943 75.6833Z" fill="#2DDCBE"/>
<path d="M120.674 97.7013C126.644 105.725 126.516 117.216 119.711 125.112C112.907 133.072 101.609 134.869 92.8146 129.862C92.4295 129.605 91.9801 129.348 91.5308 129.092C90.7605 128.578 89.9902 128 89.2841 127.358C80.2329 119.463 79.27 105.661 87.0373 96.5459C94.8688 87.4305 108.478 86.4034 117.529 94.2991C118.107 94.8127 118.749 95.3904 119.262 95.9682C119.711 96.6101 120.161 97.1878 120.674 97.7013Z" fill="#2DDCBE"/>
<path d="M92.8148 129.862C101.224 135.511 104.819 146.488 100.839 156.309C96.9231 166.066 86.7807 171.394 76.895 169.533C76.3814 169.405 75.8037 169.276 75.2902 169.148C74.3915 168.955 73.557 168.634 72.7225 168.313C61.6813 163.756 56.4175 151.045 60.8468 139.876C65.4045 128.642 77.9863 123.314 89.0274 127.808C89.8619 128.193 90.6964 128.578 91.5309 129.091C91.9803 129.348 92.3654 129.605 92.8148 129.862Z" fill="#2DDCBE"/>
<mask id="mask2_1_2251" style="mask-type:luminance" maskUnits="userSpaceOnUse" x="43" y="164" width="65" height="50">
<path d="M43.1296 164.333H107.9V213.633H43.1296V164.333Z" fill="white"/>
</mask>
<g mask="url(#mask2_1_2251)">
<path d="M76.8951 169.533C86.6523 172.165 93.521 181.409 92.8791 191.937C92.2371 202.528 84.3414 210.873 74.3916 212.286C73.878 212.35 73.3645 212.35 72.8509 212.414C71.888 212.478 70.9893 212.542 70.0264 212.478C58.1508 211.708 49.0996 201.373 49.8058 189.369C50.5119 177.301 60.7185 168.121 72.5941 168.827C73.4929 168.891 74.3916 169.02 75.2902 169.148C75.8038 169.341 76.3815 169.469 76.8951 169.533Z" fill="#2DDCBE"/>
</g>
<mask id="mask3_1_2251" style="mask-type:luminance" maskUnits="userSpaceOnUse" x="43" y="197" width="65" height="66">
<path d="M43.1296 197.2H107.9V262.934H43.1296V197.2Z" fill="white"/>
</mask>
<g mask="url(#mask3_1_2251)">
<path d="M96.6022 228.334C99.3625 238.54 94.4839 249.004 85.5611 253.561C85.0476 253.818 84.534 254.011 84.0205 254.267C83.186 254.653 82.3514 254.909 81.4528 255.166C69.9623 258.312 58.0866 251.443 54.9412 239.824C51.8599 228.205 58.6002 216.201 70.0907 212.992C70.9893 212.735 71.9522 212.542 72.8509 212.414C73.3645 212.414 73.878 212.35 74.3916 212.285C84.4056 211.643 93.8419 218.127 96.6022 228.334Z" fill="#2DDCBE"/>
</g>
<path d="M111.623 261.585C117.529 270.444 116.181 281.999 108.991 289.252C108.735 289.509 108.414 289.766 108.157 290.023C107.451 290.729 106.616 291.307 105.782 291.884C95.896 298.625 82.4797 295.993 75.8679 285.979C69.1918 275.965 71.8238 262.42 81.7094 255.68C82.4797 255.166 83.2501 254.717 84.0204 254.267C84.5339 254.075 85.0474 253.818 85.561 253.561C94.8047 249.71 105.782 252.855 111.623 261.585Z" fill="#2DDCBE"/>
<path d="M136.402 288.225C144.747 294.645 147.122 306.007 142.693 315.186C142.436 315.636 142.243 316.085 141.986 316.534C141.537 317.305 141.024 318.075 140.446 318.845C133.256 328.474 119.712 330.272 110.211 322.954C100.775 315.636 98.9132 301.898 106.167 292.334C106.809 291.499 107.451 290.729 108.157 290.023C108.478 289.766 108.735 289.509 108.991 289.253C116.566 282.448 128.057 281.742 136.402 288.225Z" fill="#2DDCBE"/>
<path d="M168.305 305.429C178.255 308.831 184.097 318.845 182.813 328.924C182.684 329.373 182.62 329.822 182.556 330.272C182.364 331.234 182.171 332.197 181.85 333.096C177.998 344.522 165.738 350.685 154.504 346.769C143.206 342.918 137.108 330.528 140.959 319.102C141.28 318.203 141.601 317.369 141.986 316.534C142.243 316.085 142.5 315.636 142.692 315.186C147.764 306.328 158.42 302.027 168.305 305.429Z" fill="#2DDCBE"/>
<path d="M203.996 311.334C215.936 311.334 225.565 321.156 225.565 333.224C225.565 345.292 215.936 355.05 203.996 355.05C192.057 355.05 182.364 345.292 182.364 333.224C182.364 332.197 182.428 331.234 182.556 330.271C182.684 329.822 182.749 329.373 182.813 328.923C184.739 318.909 193.469 311.334 203.996 311.334Z" fill="#2DDCBE"/>
<path d="M236.863 329.18C233.14 318.46 238.147 306.52 248.61 301.898C258.111 297.662 269.024 301 274.801 309.216C274.801 309.216 274.801 309.216 274.865 309.216C275.122 309.73 275.443 310.243 275.828 310.757C276.277 311.527 276.663 312.297 277.048 313.132C281.798 324.173 276.791 337.076 265.878 341.89C254.965 346.769 242.255 341.762 237.441 330.657C237.248 330.207 237.056 329.694 236.863 329.18Z" fill="#2DDCBE"/>
<path d="M309.401 283.411C317.425 292.334 316.783 306.135 307.989 314.288C299.13 322.44 285.521 321.798 277.497 312.875C276.855 312.169 276.342 311.463 275.828 310.757C275.507 310.243 275.186 309.73 274.865 309.216C274.801 309.216 274.801 309.216 274.801 309.216C269.73 300.486 271.206 289.06 278.909 281.999C286.613 274.873 297.975 274.488 306.127 280.458C306.512 280.843 306.962 281.164 307.411 281.549C308.117 282.127 308.759 282.769 309.401 283.411Z" fill="#2DDCBE"/>
<path d="M330.649 244.767C341.112 250.608 344.835 263.896 339.058 274.488C333.281 285.016 320.121 288.867 309.722 283.026C308.887 282.576 308.181 282.063 307.411 281.549C307.026 281.164 306.576 280.779 306.127 280.458C298.488 273.846 296.241 262.548 301.313 253.304C306.384 244.061 317.104 239.952 326.669 243.034C327.182 243.226 327.632 243.419 328.145 243.611C328.98 243.932 329.814 244.317 330.649 244.767Z" fill="#2DDCBE"/>
<mask id="mask4_1_2251" style="mask-type:luminance" maskUnits="userSpaceOnUse" x="305" y="197" width="61" height="50">
<path d="M305.1 197.2H365.184V246.5H305.1V197.2Z" fill="white"/>
</mask>
<g mask="url(#mask4_1_2251)">
<path d="M338.545 201.309C350.292 203.427 358.059 214.789 355.941 226.665C353.758 238.54 342.589 246.436 330.841 244.253C329.943 244.125 329.044 243.868 328.145 243.612C327.696 243.419 327.182 243.226 326.669 243.034C317.361 239.311 311.584 229.297 313.445 218.833C315.307 208.498 324.165 201.116 334.179 200.923C334.757 200.923 335.271 200.988 335.848 200.923C336.747 200.988 337.646 201.116 338.545 201.309Z" fill="#2DDCBE"/>
</g>
<mask id="mask5_1_2251" style="mask-type:luminance" maskUnits="userSpaceOnUse" x="305" y="147" width="61" height="67">
<path d="M305.1 147.9H365.184V213.633H305.1V147.9Z" fill="white"/>
</mask>
<g mask="url(#mask5_1_2251)">
<path d="M356.775 175.888C358.508 187.892 350.356 198.933 338.544 200.731C337.646 200.859 336.747 200.923 335.848 200.923C335.271 200.923 334.757 200.923 334.179 200.923C324.165 200.345 315.563 192.706 314.087 182.307C312.546 171.844 318.645 162.022 328.081 158.556C328.595 158.428 329.044 158.235 329.557 158.042C330.456 157.786 331.355 157.593 332.254 157.465C344.065 155.731 355.042 164.012 356.775 175.888Z" fill="#2DDCBE"/>
</g>
<path d="M341.497 127.551C346.89 138.336 342.717 151.495 332.125 156.951C331.291 157.401 330.456 157.722 329.558 158.043C329.044 158.235 328.53 158.364 328.081 158.556C318.388 161.317 307.796 156.887 303.046 147.451C298.36 138.143 300.928 126.909 308.631 120.554C309.208 120.169 309.722 119.784 310.3 119.334C310.942 118.885 311.712 118.436 312.418 118.051C323.074 112.594 336.041 116.831 341.497 127.551Z" fill="#2DDCBE"/>
<path d="M311.712 86.7243C320.25 95.1335 320.442 108.935 312.161 117.601C311.519 118.243 310.942 118.821 310.3 119.334C309.722 119.719 309.144 120.169 308.631 120.554C300.35 126.139 289.052 125.368 281.606 118.05C274.159 110.668 273.068 99.1776 278.46 90.5758C278.845 90.1265 279.166 89.6771 279.487 89.1636C280.001 88.4575 280.578 87.8155 281.22 87.1736C289.565 78.5076 303.174 78.315 311.712 86.7243Z" fill="#2DDCBE"/>
<path d="M270.564 57.7091C281.349 62.9087 285.906 75.9398 280.771 86.7884C280.386 87.6229 279.936 88.3932 279.487 89.1635C279.102 89.6129 278.781 90.1264 278.46 90.5758C272.426 98.664 261.385 101.617 251.948 97.1234C242.576 92.5657 237.89 81.9739 240.33 72.1525C240.522 71.5747 240.651 71.0612 240.779 70.4834C241.1 69.6489 241.421 68.8144 241.806 67.9799C246.941 57.0672 259.844 52.4453 270.564 57.7091Z" fill="#2DDCBE"/>
<mask id="mask6_1_2251" style="mask-type:luminance" maskUnits="userSpaceOnUse" x="190" y="35" width="66" height="64">
<path d="M190.067 35.3062H255.8V98.6001H190.067V35.3062Z" fill="white"/>
</mask>
<g mask="url(#mask6_1_2251)">
<path d="M222.42 43.5229C234.296 44.9351 242.705 55.8479 241.293 67.7878C241.164 68.7506 241.036 69.6493 240.779 70.4838C240.651 71.0616 240.458 71.5751 240.33 72.1529C237.12 81.7818 227.62 88.1368 217.284 86.9172C206.885 85.6333 199.118 77.0315 198.348 66.8249C198.348 66.3755 198.283 65.9262 198.283 65.4768C198.283 64.5139 198.283 63.551 198.412 62.5881C199.888 50.5841 210.608 42.0465 222.42 43.5229Z" fill="#2DDCBE"/>
</g>
<mask id="mask7_1_2251" style="mask-type:luminance" maskUnits="userSpaceOnUse" x="140" y="35" width="67" height="64">
<path d="M140.767 35.3062H206.5V98.6001H140.767V35.3062Z" fill="white"/>
</mask>
<g mask="url(#mask7_1_2251)">
<path d="M198.347 66.8246C198.476 77.0954 191.415 86.275 181.208 88.4575C170.937 90.6401 160.859 85.0553 156.943 75.6832C156.75 75.2338 156.558 74.7203 156.365 74.2709C156.109 73.3722 155.852 72.4735 155.659 71.5748C153.156 59.7634 160.666 48.1445 172.349 45.7052C184.032 43.2017 195.459 50.7764 197.898 62.6521C198.091 63.6149 198.219 64.5136 198.283 65.4765C198.283 65.9259 198.283 66.3752 198.347 66.8246Z" fill="#2DDCBE"/>
</g>
<path d="M203.997 361.341C188.655 361.341 176.137 348.695 176.137 333.225C176.137 331.941 176.265 330.657 176.394 329.437C176.458 328.859 176.586 328.282 176.715 327.704C179.218 314.544 190.709 305.044 203.997 305.044C219.339 305.044 231.792 317.69 231.792 333.225C231.792 348.695 219.339 361.341 203.997 361.341ZM203.997 317.626C196.679 317.626 190.324 322.89 188.911 330.143C188.911 330.207 188.911 330.207 188.911 330.207C188.847 330.528 188.783 330.785 188.783 331.106C188.655 331.812 188.59 332.518 188.59 333.225C188.59 341.762 195.523 348.759 203.997 348.759C212.47 348.759 219.339 341.762 219.339 333.225C219.339 324.623 212.47 317.626 203.997 317.626Z" fill="#0675AD"/>
<path d="M161.437 354.279C158.42 354.279 155.403 353.766 152.45 352.739C145.453 350.364 139.74 345.357 136.466 338.616C133.192 331.812 132.678 324.173 135.054 317.048C135.439 315.956 135.888 314.865 136.402 313.774C136.658 313.196 136.979 312.618 137.3 312.041C143.912 300.422 157.778 295.158 170.295 299.459C182.877 303.696 190.709 316.47 188.975 329.758C188.911 330.4 188.783 330.978 188.719 331.491C188.462 332.711 188.141 333.93 187.756 335.15C185.381 342.275 180.374 347.989 173.698 351.327C169.846 353.317 165.609 354.279 161.437 354.279ZM161.437 310.564C156.045 310.564 150.909 313.453 148.085 318.332C147.892 318.653 147.764 318.973 147.635 319.294C147.314 319.872 147.058 320.514 146.865 321.156C145.517 325.072 145.838 329.244 147.635 332.967C149.433 336.691 152.578 339.515 156.494 340.799C160.345 342.147 164.518 341.89 168.177 340.029C171.9 338.167 174.596 335.022 175.944 331.106C176.137 330.4 176.329 329.758 176.458 329.052C176.522 328.731 176.586 328.474 176.65 328.089C177.549 320.771 173.248 313.774 166.315 311.399C164.711 310.821 163.042 310.564 161.437 310.564Z" fill="#0675AD"/>
<path d="M123.242 333.738C117.208 333.738 111.367 331.748 106.424 327.961C94.2271 318.524 91.9161 300.807 101.224 288.482C101.994 287.455 102.893 286.428 103.792 285.529C104.113 285.208 104.498 284.887 104.819 284.502C114.769 275.579 129.597 275.002 140.189 283.218C150.717 291.307 154.119 305.943 148.277 317.947C148.021 318.524 147.7 319.102 147.379 319.68C146.801 320.707 146.159 321.734 145.389 322.697C140.895 328.667 134.347 332.518 127.03 333.481C125.746 333.674 124.526 333.738 123.242 333.738ZM123.306 290.023C119.647 290.023 115.988 291.371 113.164 293.939C112.907 294.131 112.779 294.324 112.586 294.452C112.586 294.516 112.586 294.516 112.522 294.516C112.073 295.03 111.559 295.543 111.11 296.121C105.974 302.99 107.258 312.747 113.998 317.947C117.272 320.45 121.316 321.541 125.361 321.028C129.405 320.45 132.999 318.332 135.503 315.058C135.888 314.48 136.273 313.967 136.594 313.389C136.787 313.068 136.979 312.747 137.108 312.426C140.317 305.814 138.456 297.726 132.614 293.232C129.854 291.114 126.58 290.023 123.306 290.023Z" fill="#0675AD"/>
<path d="M93.7777 301.962C91.9803 301.962 90.1829 301.77 88.3855 301.449C81.1317 299.972 74.8408 295.736 70.6683 289.509C66.4958 283.282 65.0193 275.772 66.4316 268.39C67.8438 261.007 72.0805 254.588 78.243 250.416C79.2059 249.774 80.1688 249.196 81.1959 248.682C81.8378 248.297 82.4797 248.04 83.1859 247.72C95.3183 242.712 109.441 247.013 116.823 258.055C124.205 269.224 122.793 284.245 113.356 293.746C113.035 294.067 112.65 294.388 112.329 294.709C111.366 295.607 110.339 296.442 109.248 297.148C104.626 300.293 99.234 301.962 93.7777 301.962ZM93.7135 258.247C91.7235 258.247 89.7977 258.632 87.9361 259.403C87.551 259.531 87.1658 259.724 86.8448 259.916C86.2671 260.173 85.6894 260.558 85.1758 260.879C81.7736 263.19 79.4627 266.721 78.6924 270.829C77.922 274.873 78.6924 279.046 81.0033 282.448C83.3142 285.914 86.7807 288.225 90.8248 289.06C94.8047 289.83 98.9131 288.995 102.315 286.685C102.893 286.299 103.471 285.786 103.984 285.336C104.048 285.336 104.048 285.272 104.048 285.272C104.241 285.144 104.369 284.951 104.562 284.759C109.762 279.559 110.532 271.278 106.488 265.116C103.535 260.751 98.6563 258.247 93.7135 258.247Z" fill="#0675AD"/>
<mask id="mask8_1_2251" style="mask-type:luminance" maskUnits="userSpaceOnUse" x="43" y="197" width="65" height="66">
<path d="M43.1296 197.2H107.9V262.934H43.1296V197.2Z" fill="white"/>
</mask>
<g mask="url(#mask8_1_2251)">
<path d="M75.8037 262.227C63.5429 262.227 52.3092 254.011 48.9712 241.493C44.927 226.472 53.6572 211.001 68.4857 206.893C69.6412 206.636 70.7967 206.38 71.9522 206.187C71.9522 206.187 71.9522 206.187 72.0163 206.187C72.6583 206.123 73.3002 206.059 73.9421 205.994C74.0063 205.994 74.0063 205.994 74.0705 205.994C87.1658 205.16 99.1699 213.826 102.636 226.664C106.103 239.503 100.069 253.176 88.3855 259.21C87.7436 259.531 87.1016 259.852 86.3955 260.109C85.3042 260.558 84.213 260.943 83.0575 261.264C80.6824 261.906 78.1788 262.227 75.8037 262.227ZM73.6854 218.705C73.0434 218.769 72.4015 218.897 71.7596 219.09C63.6071 221.336 58.7284 229.874 60.9752 238.155C63.2219 246.436 71.6312 251.314 79.8479 249.068C80.4256 248.939 81.0675 248.683 81.6453 248.426C82.0304 248.297 82.3514 248.105 82.7365 247.976C89.22 244.638 92.4938 237.064 90.568 230.002C88.7064 222.877 82.0304 218.127 74.7766 218.576H74.7125C74.3915 218.576 74.0705 218.64 73.6854 218.705Z" fill="#0675AD"/>
</g>
<mask id="mask9_1_2251" style="mask-type:luminance" maskUnits="userSpaceOnUse" x="43" y="147" width="65" height="84">
<path d="M43.1296 147.9H107.9V230.067H43.1296V147.9Z" fill="white"/>
</mask>
<g mask="url(#mask9_1_2251)">
<path d="M71.3744 218.833C70.7967 218.833 70.2189 218.769 69.6412 218.769C62.259 218.319 55.4546 214.981 50.5118 209.332C45.5689 203.683 43.1296 196.494 43.579 188.983C44.0283 181.473 47.3021 174.604 52.8869 169.597C58.4075 164.59 65.5971 162.087 72.9792 162.536C74.1347 162.6 75.2902 162.728 76.3814 162.985C76.4456 162.985 76.4456 162.985 76.5098 162.985C77.2159 163.114 77.9221 163.306 78.564 163.435C91.2741 166.901 99.876 179.033 99.1057 192.321C98.2711 205.673 88.2571 216.715 75.226 218.512C75.226 218.512 75.1618 218.512 75.0976 218.576C74.5198 218.64 73.8779 218.704 73.236 218.769C72.6583 218.769 72.0163 218.833 71.3744 218.833ZM71.3102 175.118C67.587 175.118 63.9922 176.466 61.1678 179.033C58.0865 181.794 56.2891 185.581 56.0324 189.754C55.7756 193.862 57.1236 197.842 59.8197 200.923C62.58 204.069 66.3032 205.93 70.4115 206.187C71.1176 206.187 71.7596 206.187 72.4015 206.123C72.7866 206.123 73.1718 206.058 73.4928 206.058C73.557 206.058 73.557 205.994 73.6211 205.994C80.7465 204.967 86.2029 198.869 86.6523 191.551C87.1016 184.233 82.3514 177.557 75.2902 175.631C74.905 175.567 74.5198 175.439 74.1347 175.374H74.0705C73.4286 175.246 72.8508 175.182 72.2731 175.118C71.9521 175.118 71.6312 175.118 71.3102 175.118Z" fill="#0675AD"/>
</g>
<mask id="mask10_1_2251" style="mask-type:luminance" maskUnits="userSpaceOnUse" x="43" y="115" width="82" height="66">
<path d="M43.1296 115.033H124.333V180.767H43.1296V115.033Z" fill="white"/>
</mask>
<g mask="url(#mask10_1_2251)">
<path d="M80.8107 176.209C79.1417 176.209 77.4727 176.08 75.8036 175.759C75.0975 175.631 74.3914 175.438 73.6853 175.246C73.6853 175.246 73.6853 175.246 73.6211 175.246C72.5298 174.925 71.4385 174.604 70.4114 174.155C56.2249 168.313 49.3562 151.88 55.1336 137.501C60.9109 123.121 77.1517 116.189 91.3383 121.966C92.4296 122.479 93.5208 122.993 94.5479 123.571C95.1256 123.892 95.7034 124.213 96.2811 124.598C107.258 131.98 111.623 146.359 106.616 158.684C102.315 169.404 91.9802 176.209 80.8107 176.209ZM76.8949 163.049C77.2801 163.178 77.6652 163.306 78.0504 163.37C85.1758 164.718 92.3654 160.738 95.1256 153.934C97.8217 147.129 95.4466 139.234 89.4125 135.125C89.0915 134.933 88.7706 134.74 88.4496 134.548C87.8719 134.227 87.2941 133.906 86.6522 133.649C78.8207 130.439 69.8337 134.291 66.6241 142.251C63.4786 150.146 67.266 159.262 75.0975 162.471C75.6752 162.728 76.253 162.921 76.8307 163.049C76.8949 163.049 76.8949 163.049 76.8949 163.049Z" fill="#0675AD"/>
</g>
<path d="M103.342 138.977C98.7205 138.977 94.0344 137.822 89.7977 135.383C89.22 135.062 88.6422 134.677 88.0645 134.291C87.1016 133.649 86.1387 132.943 85.24 132.173C79.5911 127.23 76.1888 120.426 75.6753 112.915C75.0976 105.405 77.4727 98.1509 82.3513 92.4377C92.3654 80.6904 109.954 79.4066 121.573 89.4848C122.408 90.191 123.114 90.9613 123.82 91.6674C123.884 91.7316 123.884 91.7958 123.948 91.7958C124.526 92.5019 125.104 93.208 125.681 93.9142C129.405 98.9854 131.395 105.276 131.202 111.631C131.009 118.115 128.634 124.341 124.462 129.22C119.005 135.575 111.238 138.977 103.342 138.977ZM103.407 95.3264C99.1056 95.3264 94.8047 97.1238 91.7877 100.654C89.0916 103.8 87.8077 107.844 88.0645 111.952C88.3855 116.125 90.247 119.912 93.3925 122.608C93.906 123.058 94.4196 123.443 94.9331 123.828C95.2541 124.021 95.575 124.213 95.896 124.406C102.187 128 110.275 126.588 115.025 121.003C119.711 115.483 119.968 107.266 115.667 101.489C115.411 101.04 115.025 100.654 114.704 100.269C114.64 100.269 114.64 100.205 114.576 100.205C114.255 99.8199 113.87 99.4347 113.421 99.0496C110.532 96.5461 107.001 95.3264 103.407 95.3264Z" fill="#0675AD"/>
<path d="M136.466 110.989C135.118 110.989 133.705 110.861 132.357 110.668C126.131 109.705 120.353 106.624 116.117 102.002C115.475 101.296 114.833 100.526 114.255 99.7555C114.255 99.7555 114.191 99.6913 114.191 99.6271C113.613 98.8568 113.035 98.0223 112.522 97.1236C104.755 83.7715 109.184 66.5037 122.408 58.6079C128.827 54.7564 136.273 53.7293 143.463 55.5909C150.717 57.4525 156.751 62.0744 160.474 68.5578C161.116 69.5849 161.629 70.6762 162.079 71.7675C162.335 72.3452 162.528 72.8587 162.785 73.4365C162.785 73.5007 162.785 73.5648 162.785 73.6291C167.15 86.275 162.014 100.333 150.652 107.073C146.351 109.641 141.409 110.989 136.466 110.989ZM124.269 92.2449C124.59 92.6943 124.911 93.0794 125.232 93.4004C130.111 98.7284 138.135 99.9481 144.297 96.2249C150.588 92.5017 153.413 84.7986 151.102 77.8658C151.038 77.8658 151.038 77.8016 151.038 77.7374C150.909 77.4164 150.781 77.0954 150.652 76.7745C150.396 76.1326 150.075 75.5548 149.754 74.9771C147.699 71.3823 144.361 68.8146 140.382 67.7875C136.402 66.7604 132.229 67.3382 128.698 69.4565C121.445 73.8216 119.005 83.3863 123.306 90.7685C123.563 91.2178 123.884 91.7314 124.269 92.1807C124.269 92.2449 124.269 92.2449 124.269 92.2449Z" fill="#0675AD"/>
<mask id="mask11_1_2251" style="mask-type:luminance" maskUnits="userSpaceOnUse" x="140" y="35" width="67" height="64">
<path d="M140.767 35.3062H206.5V98.6001H140.767V35.3062Z" fill="white"/>
</mask>
<g mask="url(#mask11_1_2251)">
<path d="M176.843 95.2623C165.866 95.2623 155.659 88.6505 151.23 78.187C151.23 78.187 151.23 78.187 151.166 78.187C150.973 77.6093 150.717 77.0316 150.524 76.3254C150.139 75.2342 149.818 74.0145 149.561 72.8591C148.02 65.4769 149.433 57.9663 153.477 51.6755C157.521 45.3846 163.812 41.0837 171.066 39.543C178.319 38.0024 185.766 39.4147 191.992 43.523C198.219 47.6313 202.456 53.9864 203.996 61.3686C204.253 62.524 204.382 63.7437 204.51 65.0275C204.51 65.6053 204.574 66.183 204.574 66.7607C204.703 80.177 195.459 91.8601 182.492 94.6204C180.566 95.0697 178.705 95.2623 176.843 95.2623ZM162.656 73.18C162.656 73.18 162.656 73.18 162.656 73.2442C165.481 79.9844 172.799 83.7718 179.924 82.2954C187.05 80.7547 192.185 74.3355 192.121 66.9533C192.121 66.8891 192.121 66.8891 192.121 66.8891C192.121 66.5682 192.057 66.3114 192.057 65.9904C191.992 65.2843 191.928 64.5782 191.8 63.9363C190.965 59.8279 188.59 56.3615 185.188 54.0506C181.722 51.8038 177.613 51.0335 173.633 51.868C169.589 52.7025 166.187 55.0777 163.94 58.5441C161.693 62.0105 160.923 66.183 161.758 70.2913C161.886 70.9333 162.079 71.5752 162.271 72.2171C162.4 72.5381 162.528 72.8591 162.656 73.18Z" fill="#0675AD"/>
</g>
<mask id="mask12_1_2251" style="mask-type:luminance" maskUnits="userSpaceOnUse" x="190" y="35" width="66" height="64">
<path d="M190.067 35.3062H255.8V98.6001H190.067V35.3062Z" fill="white"/>
</mask>
<g mask="url(#mask12_1_2251)">
<path d="M219.852 93.3365C218.761 93.3365 217.669 93.2723 216.514 93.144C203.354 91.5391 193.084 80.6906 192.121 67.3385C192.057 66.7607 192.057 66.183 192.057 65.6053C191.992 64.3856 192.057 63.1018 192.249 61.8179C194.111 46.4117 207.976 35.3705 223.19 37.2321C238.404 39.0937 249.316 53.1519 247.455 68.5581C247.326 69.7778 247.134 70.9333 246.877 72.0245C246.685 72.7307 246.492 73.4368 246.235 74.1429C244.245 80.177 240.201 85.4408 234.873 88.9072C230.38 91.7959 225.116 93.3365 219.852 93.3365ZM219.852 49.6213C212.213 49.6213 205.537 55.4628 204.638 63.3585C204.51 64.0647 204.51 64.7066 204.51 65.4127C204.51 65.7337 204.51 66.0546 204.574 66.3756C205.088 73.7578 210.737 79.7277 218.055 80.6264C225.244 81.5251 232.113 77.0958 234.424 70.163C234.552 69.7136 234.681 69.3927 234.745 69.0075V68.9433C234.937 68.3656 235.001 67.7236 235.13 67.0175C236.093 58.5441 230.059 50.7768 221.714 49.7497C221.072 49.6855 220.494 49.6213 219.852 49.6213Z" fill="#0675AD"/>
</g>
<mask id="mask13_1_2251" style="mask-type:luminance" maskUnits="userSpaceOnUse" x="222" y="35" width="84" height="81">
<path d="M222.933 35.3062H305.1V115.033H222.933V35.3062Z" fill="white"/>
</mask>
<g mask="url(#mask13_1_2251)">
<path d="M261.256 105.533C257.148 105.533 253.04 104.634 249.317 102.773C237.441 97.0594 231.086 83.5147 234.296 70.612C234.488 69.9059 234.681 69.1998 234.873 68.4937C235.258 67.4024 235.708 66.3111 236.221 65.2198C239.367 58.4796 245.016 53.3442 252.013 50.8407C259.01 48.3371 266.584 48.7223 273.26 51.9961C287.126 58.6722 292.968 75.5549 286.42 89.5489C285.906 90.576 285.329 91.603 284.687 92.5659C284.302 93.2079 283.916 93.7856 283.467 94.4275C279.616 99.4987 274.159 103.158 267.997 104.698C265.75 105.276 263.503 105.533 261.256 105.533ZM261.256 61.8176C259.523 61.8176 257.854 62.1386 256.185 62.7163C252.269 64.1286 249.188 66.953 247.455 70.6762C247.134 71.2539 246.941 71.8959 246.749 72.4736C246.685 72.4736 246.685 72.5378 246.685 72.5378C246.556 72.8588 246.492 73.2439 246.364 73.6291C246.364 73.6291 246.364 73.6291 246.364 73.6933C244.631 80.7545 248.097 88.265 254.645 91.4105C261.192 94.5559 269.152 92.6301 273.517 86.7886C273.774 86.4676 273.967 86.1467 274.223 85.8257C274.223 85.7615 274.223 85.7615 274.223 85.7615C274.544 85.248 274.865 84.6702 275.122 84.0925C278.781 76.3894 275.507 67.0814 267.868 63.3582C265.814 62.3312 263.567 61.8176 261.256 61.8176Z" fill="#0675AD"/>
</g>
<path d="M296.627 130.504C295.856 130.504 295.086 130.504 294.252 130.44C287.896 129.862 281.862 127.038 277.24 122.544C267.804 113.236 266.135 98.4076 273.261 87.1739C273.581 86.5962 274.031 85.9543 274.48 85.3765C275.186 84.4136 275.957 83.5791 276.727 82.7446C287.447 71.6393 305.1 71.3825 316.077 82.1669C327.054 93.0155 327.247 110.925 316.591 122.031C315.82 122.801 315.05 123.571 314.215 124.213C313.509 124.791 312.803 125.304 312.097 125.818C307.539 128.899 302.147 130.504 296.627 130.504ZM284.43 93.0155C284.173 93.3364 283.917 93.6574 283.724 93.9784C279.808 100.205 280.771 108.358 285.971 113.493C291.106 118.564 299.194 119.334 305.164 115.29C305.549 115.034 305.935 114.777 306.32 114.456H306.384C306.833 114.071 307.283 113.686 307.668 113.236C313.574 107.074 313.445 97.188 307.411 91.2181C301.313 85.2481 291.555 85.3765 285.65 91.539C285.2 91.9884 284.815 92.5019 284.43 93.0155Z" fill="#0675AD"/>
<path d="M322.304 165.682C312.097 165.682 302.34 159.904 297.525 150.34C294.572 144.562 293.738 137.886 295.086 131.531C296.434 125.304 299.836 119.655 304.715 115.675C305.357 115.162 306.063 114.584 306.833 114.135V114.071C307.732 113.493 308.63 112.915 309.593 112.466C323.266 105.405 340.021 110.861 347.018 124.662C350.42 131.403 350.998 139.042 348.751 146.231C346.44 153.357 341.561 159.198 334.95 162.6C333.858 163.114 332.767 163.627 331.676 164.013C331.098 164.205 330.456 164.462 329.75 164.654C327.246 165.296 324.807 165.682 322.304 165.682ZM313.766 124.598C313.317 124.855 312.931 125.176 312.546 125.433C307.026 130.055 305.357 138.079 308.63 144.562C311.904 151.11 319.415 154.448 326.412 152.458C326.797 152.394 327.118 152.265 327.439 152.137C327.439 152.137 327.439 152.137 327.503 152.137C328.081 151.88 328.659 151.623 329.236 151.367C332.895 149.441 335.591 146.231 336.875 142.315C338.159 138.4 337.838 134.163 335.912 130.44C332.061 122.801 322.817 119.784 315.307 123.7C314.729 123.956 314.215 124.277 313.766 124.598Z" fill="#0675AD"/>
<mask id="mask14_1_2251" style="mask-type:luminance" maskUnits="userSpaceOnUse" x="305" y="147" width="61" height="67">
<path d="M305.1 147.9H365.184V213.633H305.1V147.9Z" fill="white"/>
</mask>
<g mask="url(#mask14_1_2251)">
<path d="M335.399 207.278C334.885 207.278 334.372 207.278 333.858 207.214C320.699 206.508 309.786 196.366 307.925 183.206C305.999 170.047 313.574 157.144 325.963 152.586C326.605 152.394 327.247 152.201 327.888 152.008C329.044 151.687 330.199 151.431 331.355 151.238C346.569 148.991 360.691 159.647 362.938 174.989C365.184 190.331 354.657 204.711 339.507 206.957C338.288 207.15 337.132 207.214 335.977 207.278C335.784 207.278 335.592 207.278 335.399 207.278ZM335.399 163.563C334.629 163.563 333.923 163.627 333.152 163.691C332.51 163.82 331.868 163.948 331.226 164.141C330.906 164.205 330.52 164.333 330.199 164.462C323.331 166.965 319.158 174.091 320.25 181.344C321.277 188.662 327.311 194.247 334.565 194.632C334.885 194.632 335.335 194.632 335.72 194.632C336.362 194.632 337.004 194.568 337.646 194.504C346.055 193.22 351.832 185.324 350.613 176.851C349.457 169.148 342.91 163.563 335.399 163.563Z" fill="#0675AD"/>
</g>
<mask id="mask15_1_2251" style="mask-type:luminance" maskUnits="userSpaceOnUse" x="305" y="180" width="61" height="83">
<path d="M305.1 180.767H365.184V262.933H305.1V180.767Z" fill="white"/>
</mask>
<g mask="url(#mask15_1_2251)">
<path d="M334.693 250.929C333.024 250.929 331.419 250.801 329.75 250.48C328.53 250.287 327.375 249.966 326.284 249.581C325.642 249.389 325 249.196 324.422 248.939C312.161 243.997 304.972 230.837 307.347 217.742C309.658 204.582 320.892 194.889 334.051 194.632C334.757 194.632 335.463 194.632 336.169 194.632C337.325 194.697 338.545 194.889 339.7 195.082C346.954 196.43 353.309 200.538 357.546 206.765C361.782 212.927 363.387 220.374 362.039 227.82C359.6 241.365 347.852 250.929 334.693 250.929ZM334.629 207.214C334.565 207.214 334.436 207.214 334.372 207.214C327.054 207.407 320.892 212.735 319.608 219.988C318.26 227.242 322.24 234.496 328.98 237.192C329.365 237.32 329.686 237.449 330.007 237.577C330.649 237.77 331.291 237.962 331.997 238.091C340.278 239.567 348.302 233.982 349.778 225.509C350.549 221.465 349.65 217.357 347.339 213.89C344.964 210.488 341.497 208.241 337.453 207.471C336.811 207.342 336.169 207.278 335.527 207.278H335.463C335.206 207.214 334.95 207.214 334.629 207.214Z" fill="#0675AD"/>
</g>
<path d="M320.121 292.013C315.563 292.013 310.941 290.921 306.705 288.546C305.678 287.968 304.715 287.327 303.752 286.62C303.174 286.171 302.596 285.722 302.019 285.272C297.268 281.1 293.995 275.322 292.839 269.032C291.684 262.612 292.711 255.936 295.856 250.223C302.275 238.54 316.013 233.02 328.594 237.064C329.236 237.256 329.878 237.513 330.456 237.706C331.547 238.155 332.639 238.668 333.666 239.31C340.149 242.905 344.899 248.875 346.954 256.129C348.944 263.318 348.109 270.957 344.514 277.505C339.443 286.813 329.943 292.013 320.121 292.013ZM320.185 248.362C314.729 248.362 309.529 251.314 306.769 256.321C303.238 262.805 304.651 270.893 310.171 275.708C310.492 275.964 310.813 276.221 311.134 276.414C311.648 276.799 312.161 277.184 312.739 277.505C320.121 281.613 329.493 278.917 333.602 271.407C335.591 267.812 336.105 263.575 334.95 259.595C333.794 255.615 331.226 252.341 327.632 250.287C327.054 249.966 326.476 249.71 325.834 249.453C325.513 249.324 325.192 249.196 324.807 249.068C323.266 248.554 321.726 248.362 320.185 248.362Z" fill="#0675AD"/>
<path d="M293.481 326.292C293.032 326.292 292.582 326.292 292.133 326.292C284.687 325.907 277.882 322.697 272.875 317.112C272.105 316.278 271.399 315.379 270.757 314.416C270.307 313.774 269.858 313.132 269.473 312.49V312.426C266.263 306.906 264.979 300.422 265.942 294.067C266.841 287.648 269.922 281.678 274.673 277.313C284.43 268.39 299.194 267.555 309.786 275.323C310.364 275.772 310.941 276.286 311.519 276.735C312.354 277.505 313.188 278.34 314.023 279.174C324.294 290.665 323.523 308.51 312.161 318.974C306.962 323.724 300.414 326.292 293.481 326.292ZM280.193 306.007C280.45 306.392 280.643 306.777 280.899 307.098C281.284 307.676 281.67 308.125 282.119 308.639C284.879 311.656 288.602 313.453 292.711 313.646C296.819 313.838 300.735 312.426 303.752 309.602C310.043 303.888 310.492 294.003 304.779 287.712C304.33 287.198 303.88 286.749 303.367 286.3C303.046 286.043 302.789 285.786 302.468 285.594C302.468 285.594 302.404 285.594 302.404 285.529C296.562 281.228 288.474 281.678 283.082 286.621C277.754 291.563 276.534 299.716 280.193 306.007Z" fill="#0675AD"/>
<path d="M257.276 350.043C246.556 350.043 236.35 343.752 231.728 333.224C231.471 332.582 231.214 331.94 231.022 331.234C226.143 317.433 232.819 301.962 246.107 296.121C252.013 293.553 258.625 293.04 264.787 294.837C270.885 296.57 276.278 300.358 279.936 305.557V305.621C280.386 306.263 280.771 306.905 281.156 307.547C281.734 308.51 282.247 309.537 282.761 310.628C288.859 324.815 282.44 341.505 268.382 347.668C264.787 349.272 261 350.043 257.276 350.043ZM257.212 306.392C255.158 306.392 253.104 306.841 251.114 307.676C243.732 310.949 240.073 319.423 242.769 327.062C242.897 327.447 243.026 327.768 243.154 328.153C245.722 333.995 251.371 337.461 257.276 337.461C259.331 337.461 261.385 337.012 263.375 336.113C271.142 332.711 274.673 323.531 271.335 315.635C271.078 315.122 270.757 314.544 270.436 313.966C270.243 313.581 269.987 313.26 269.73 312.875C269.73 312.875 269.73 312.875 269.73 312.811C266.777 308.703 262.091 306.392 257.212 306.392Z" fill="#0675AD"/>
<path d="M225.565 339.515C222.998 339.515 220.558 337.91 219.66 335.278C218.568 332.005 220.237 328.41 223.511 327.254L234.809 323.21C235.002 323.146 235.194 323.082 235.387 323.018C238.725 322.183 242.127 324.301 242.961 327.639C243.732 330.913 241.87 334.123 238.853 335.15L227.619 339.13C226.977 339.387 226.271 339.515 225.565 339.515Z" fill="#0675AD"/>
<path d="M248.867 378.352C246.621 378.352 244.438 377.132 243.347 374.95C243.282 374.821 243.218 374.693 243.154 374.564L225.501 333.738C224.153 330.657 225.501 326.933 228.518 325.457C231.664 323.981 235.323 325.329 236.863 328.474C236.863 328.538 236.863 328.602 236.927 328.667L254.58 369.429C255.864 372.446 254.709 376.041 251.756 377.646C250.857 378.095 249.83 378.352 248.867 378.352Z" fill="#0675AD"/>
<path d="M261.449 405.441C261.064 405.441 260.743 405.441 260.358 405.377C259.459 405.377 258.625 405.248 257.726 405.12C246.428 403.258 238.34 393.116 238.853 381.561C239.11 376.49 240.907 371.804 244.117 367.953C248.675 362.432 255.351 359.479 262.476 359.8C273.068 360.314 281.927 368.338 283.66 378.929C283.917 380.47 283.981 382.075 283.916 383.68C283.66 389.714 281.028 395.363 276.599 399.471C272.426 403.323 267.098 405.441 261.449 405.441ZM261.385 372.382C258.368 372.382 255.608 373.73 253.682 376.041C252.205 377.774 251.435 379.892 251.307 382.139C251.05 387.339 254.709 391.832 259.716 392.667C260.101 392.731 260.55 392.795 260.936 392.795C263.632 392.923 266.199 391.961 268.189 390.163C270.179 388.302 271.335 385.798 271.463 383.102C271.527 382.332 271.463 381.626 271.335 380.919C270.629 376.233 266.584 372.639 261.834 372.382C261.706 372.382 261.513 372.382 261.385 372.382Z" fill="#0675AD"/>
<mask id="mask16_1_2251" style="mask-type:luminance" maskUnits="userSpaceOnUse" x="239" y="361" width="83" height="80">
<path d="M239.367 361.533H321.533V440.811H239.367V361.533Z" fill="white"/>
</mask>
<g mask="url(#mask16_1_2251)">
<path d="M284.623 440.747C284.43 440.747 284.302 440.747 284.109 440.683C282.312 440.554 280.643 439.656 279.551 438.179L253.746 402.681C251.692 399.856 252.27 395.876 255.03 393.822C257.79 391.768 261.706 392.346 263.76 395.17L285.329 424.763L303.046 406.789L273.838 384.964C271.078 382.909 270.436 378.994 272.49 376.169C274.544 373.345 278.46 372.767 281.22 374.821L316.27 401.012C317.746 402.103 318.709 403.772 318.837 405.634C318.966 407.431 318.26 409.228 316.976 410.512L288.988 438.885C287.832 440.041 286.227 440.747 284.623 440.747Z" fill="#0675AD"/>
</g>
</svg>
